<?xml version="1.0" encoding="utf-8"?>
<!-- Generated by IcoMoon.io -->
<!DOCTYPE svg PUBLIC "-//W3C//DTD SVG 1.1//EN" "http://www.w3.org/Graphics/SVG/1.1/DTD/svg11.dtd">
<svg version="1.1" xmlns="http://www.w3.org/2000/svg" xmlns:xlink="http://www.w3.org/1999/xlink" width="1046" height="128" viewBox="0 0 1046 128">
<g transform="translate(0 0)">
	<path d="M100 52v-16c0-19.884-16.116-36-36-36s-36 16.116-36 36v16c-6.628 0-12 5.372-12 12v28c0 19.884 16.116 36 36 36h24c19.884 0 36-16.116 36-36v-28c0-6.632-5.376-12-12-12zM36 36c0-15.464 12.536-28 28-28s28 12.536 28 28v16h-8v-15.992c0-11.048-8.952-20-20-20s-20 8.952-20 20v15.992h-8v-16zM80 36v16h-32v-16c0-8.836 7.164-16 16-16s16 7.164 16 16zM104 76v16c0 15.436-12.564 28-28 28h-24c-15.436 0-28-12.564-28-28v-28c0-2.208 1.792-4 4-4 2.668 0 5.332 0 8 0h56c2.664 0 5.328 0 8 0 2.204 0 4 1.792 4 4v12zM64 76c4.416 0 8 3.58 8 8 0 2.436-1.312 7.072-2.664 10.728-1.092 2.952-2.208 5.264-5.336 5.264-2.876 0-4.244-2.336-5.332-5.304-1.336-3.648-2.668-8.26-2.668-10.688 0-4.42 3.584-8 8-8z" fill="#4a9efa" />
</g>
<g transform="translate(144 0)">
	<path d="M88.016 0c-22.092 0-40 17.912-40 40 0 5.14 1.076 10.004 2.852 14.516l-48.596 48.592c-1.404 1.408-2.272 2.744-2.272 4.892v12c0 4.28 3.716 8 8 8h12c2.144 0 3.5-0.86 4.904-2.256l5.74-5.744h9.372c4.416 0 8-3.584 8-8v-8h8c4.416 0 8-3.584 8-8v-9.376l9.476-9.484c4.516 1.78 9.376 2.86 14.524 2.86 22.084 0 40-17.912 40-40s-17.916-40-40-40zM88.016 72c-5.92 0-11.408-1.72-16.164-4.528l-1.376 1.372-12.12 12.124c-1.5 1.5-2.344 3.532-2.344 5.656v9.376h-8c-4.416 0-8 3.58-8 8v8h-9.368c-2.12 0-4.156 0.844-5.656 2.344l-5.672 5.672-11.304-0.016-0.012-11.4 46.66-46.576c0 0 0 0.004 0.004 0.008l5.876-5.876c-2.808-4.756-4.528-10.24-4.528-16.16 0-17.672 14.332-32 32-32s32 14.328 32 32-14.324 32.004-31.996 32.004zM111.28 32.956c-4.484-6.248-9.944-11.7-16.22-16.216-1.020-0.74-2.34-0.924-3.528-0.508-5.556 1.956-9.36 5.756-11.304 11.312-0.148 0.416-0.22 0.848-0.22 1.276 0 0.796 0.248 1.584 0.728 2.252 4.5 6.256 9.952 11.712 16.212 16.212 1.024 0.736 2.336 0.924 3.524 0.512 5.564-1.944 9.368-5.752 11.32-11.312 0.148-0.416 0.22-0.848 0.22-1.276-0.004-0.796-0.256-1.584-0.732-2.252zM99.28 44.040c-5.912-4.252-11.060-9.4-15.28-15.172 1.548-4.412 4.444-7.308 8.728-8.884 5.916 4.26 11.056 9.396 15.264 15.244-1.564 4.38-4.452 7.26-8.712 8.812z" fill="#4a9efa" />
</g>
<g transform="translate(288 0)">
	<path d="M59.429 36.571q0-5.714-4-9.714t-9.714-4-9.714 4-4 9.714q0 3 1.357 5.929-2.929-1.357-5.929-1.357-5.714 0-9.714 4t-4 9.714 4 9.714 9.714 4 9.714-4 4-9.714q0-3-1.357-5.929 2.929 1.357 5.929 1.357t9.714-4 4-9.714zM120.214 86.857q0 1.214-3.5 4.714t-4.714 3.5q-0.643 0-2.036-1.143t-2.607-2.357-2.75-2.857-1.75-1.857l-6.857 6.857 15.714 15.714q2 2 2 4.857 0 3-2.786 5.786t-5.786 2.786q-2.857 0-4.857-2l-47.929-47.929q-12.571 9.357-26.071 9.357-11.643 0-18.964-7.321t-7.321-18.964q0-11.429 6.786-22.357t17.714-17.714 22.357-6.786q11.643 0 18.964 7.321t7.321 18.964q0 13.5-9.357 26.071l25.357 25.357 6.857-6.857q-0.214-0.214-1.857-1.75t-2.857-2.75-2.357-2.607-1.143-2.036q0-1.214 3.5-4.714t4.714-3.5q0.929 0 1.643 0.714 0.429 0.429 3.286 3.179t5.857 5.679 6.179 6.143 5.214 5.571 2.036 2.929z" fill="#4a9efa" />
</g>
<g transform="translate(432 0)">
	<path d="M128 96v9.143q0 1.857-1.357 3.214t-3.214 1.357h-118.857q-1.857 0-3.214-1.357t-1.357-3.214v-9.143q0-1.857 1.357-3.214t3.214-1.357h118.857q1.857 0 3.214 1.357t1.357 3.214zM128 68.571v9.143q0 1.857-1.357 3.214t-3.214 1.357h-118.857q-1.857 0-3.214-1.357t-1.357-3.214v-9.143q0-1.857 1.357-3.214t3.214-1.357h118.857q1.857 0 3.214 1.357t1.357 3.214zM128 41.143v9.143q0 1.857-1.357 3.214t-3.214 1.357h-118.857q-1.857 0-3.214-1.357t-1.357-3.214v-9.143q0-1.857 1.357-3.214t3.214-1.357h118.857q1.857 0 3.214 1.357t1.357 3.214zM128 13.714v9.143q0 1.857-1.357 3.214t-3.214 1.357h-118.857q-1.857 0-3.214-1.357t-1.357-3.214v-9.143q0-1.857 1.357-3.214t3.214-1.357h118.857q1.857 0 3.214 1.357t1.357 3.214z" fill="#4a9efa" />
</g>
<g transform="translate(576 0)">
	<path d="M100.571 52.571v13.714q0 2.857-2 4.857t-4.857 2h-29.714v29.714q0 2.857-2 4.857t-4.857 2h-13.714q-2.857 0-4.857-2t-2-4.857v-29.714h-29.714q-2.857 0-4.857-2t-2-4.857v-13.714q0-2.857 2-4.857t4.857-2h29.714v-29.714q0-2.857 2-4.857t4.857-2h13.714q2.857 0 4.857 2t2 4.857v29.714h29.714q2.857 0 4.857 2t2 4.857z" fill="#4a9efa" />
</g>
<g transform="translate(693 0)">
	<path d="M36.571 52.571v41.143q0 1-0.643 1.643t-1.643 0.643h-4.571q-1 0-1.643-0.643t-0.643-1.643v-41.143q0-1 0.643-1.643t1.643-0.643h4.571q1 0 1.643 0.643t0.643 1.643zM54.857 52.571v41.143q0 1-0.643 1.643t-1.643 0.643h-4.571q-1 0-1.643-0.643t-0.643-1.643v-41.143q0-1 0.643-1.643t1.643-0.643h4.571q1 0 1.643 0.643t0.643 1.643zM73.143 52.571v41.143q0 1-0.643 1.643t-1.643 0.643h-4.571q-1 0-1.643-0.643t-0.643-1.643v-41.143q0-1 0.643-1.643t1.643-0.643h4.571q1 0 1.643 0.643t0.643 1.643zM82.286 104.286v-67.714h-64v67.714q0 1.571 0.5 2.893t1.036 1.929 0.75 0.607h59.429q0.214 0 0.75-0.607t1.036-1.929 0.5-2.893zM34.286 27.429h32l-3.429-8.357q-0.5-0.643-1.214-0.786h-22.643q-0.714 0.143-1.214 0.786zM100.571 29.714v4.571q0 1-0.643 1.643t-1.643 0.643h-6.857v67.714q0 5.929-3.357 10.25t-8.071 4.321h-59.429q-4.714 0-8.071-4.179t-3.357-10.107v-68h-6.857q-1 0-1.643-0.643t-0.643-1.643v-4.571q0-1 0.643-1.643t1.643-0.643h22.071l5-11.929q1.071-2.643 3.857-4.5t5.643-1.857h22.857q2.857 0 5.643 1.857t3.857 4.5l5 11.929h22.071q1 0 1.643 0.643t0.643 1.643z" fill="#4a9efa" />
</g>
<g transform="translate(810 0)">
	<path d="M97.286 101.857v-46.286h-9.643q1.429 4.5 1.429 9.357 0 9-4.571 16.607t-12.429 12.036-17.143 4.429q-14.071 0-24.071-9.679t-10-23.393q0-4.857 1.429-9.357h-10.071v46.286q0 1.857 1.25 3.107t3.107 1.25h76.357q1.786 0 3.071-1.25t1.286-3.107zM77 63.786q0-8.857-6.464-15.107t-15.607-6.25q-9.071 0-15.536 6.25t-6.464 15.107 6.464 15.107 15.536 6.25q9.143 0 15.607-6.25t6.464-15.107zM97.286 38.071v-11.786q0-2-1.429-3.464t-3.5-1.464h-12.429q-2.071 0-3.5 1.464t-1.429 3.464v11.786q0 2.071 1.429 3.5t3.5 1.429h12.429q2.071 0 3.5-1.429t1.429-3.5zM109.714 23.214v81.571q0 5.786-4.143 9.929t-9.929 4.143h-81.571q-5.786 0-9.929-4.143t-4.143-9.929v-81.571q0-5.786 4.143-9.929t9.929-4.143h81.571q5.786 0 9.929 4.143t4.143 9.929z" fill="#4a9efa" />
</g>
<g transform="translate(936 0)">
	<path d="M109.714 96v9.143q0 1.857-1.357 3.214t-3.214 1.357h-100.571q-1.857 0-3.214-1.357t-1.357-3.214v-9.143q0-1.857 1.357-3.214t3.214-1.357h100.571q1.857 0 3.214 1.357t1.357 3.214zM109.714 59.429v9.143q0 1.857-1.357 3.214t-3.214 1.357h-100.571q-1.857 0-3.214-1.357t-1.357-3.214v-9.143q0-1.857 1.357-3.214t3.214-1.357h100.571q1.857 0 3.214 1.357t1.357 3.214zM109.714 22.857v9.143q0 1.857-1.357 3.214t-3.214 1.357h-100.571q-1.857 0-3.214-1.357t-1.357-3.214v-9.143q0-1.857 1.357-3.214t3.214-1.357h100.571q1.857 0 3.214 1.357t1.357 3.214z" fill="#4a9efa" />
</g>
</svg>
