<?xml version="1.0" encoding="utf-8"?>
<!-- Generated by IcoMoon.io -->
<!DOCTYPE svg PUBLIC "-//W3C//DTD SVG 1.1//EN" "http://www.w3.org/Graphics/SVG/1.1/DTD/svg11.dtd">
<svg version="1.1" xmlns="http://www.w3.org/2000/svg" xmlns:xlink="http://www.w3.org/1999/xlink" width="128" height="128" viewBox="0 0 128 128">
<g>
</g>
	<path d="M128 96v9.143q0 1.857-1.357 3.214t-3.214 1.357h-118.857q-1.857 0-3.214-1.357t-1.357-3.214v-9.143q0-1.857 1.357-3.214t3.214-1.357h118.857q1.857 0 3.214 1.357t1.357 3.214zM128 68.571v9.143q0 1.857-1.357 3.214t-3.214 1.357h-118.857q-1.857 0-3.214-1.357t-1.357-3.214v-9.143q0-1.857 1.357-3.214t3.214-1.357h118.857q1.857 0 3.214 1.357t1.357 3.214zM128 41.143v9.143q0 1.857-1.357 3.214t-3.214 1.357h-118.857q-1.857 0-3.214-1.357t-1.357-3.214v-9.143q0-1.857 1.357-3.214t3.214-1.357h118.857q1.857 0 3.214 1.357t1.357 3.214zM128 13.714v9.143q0 1.857-1.357 3.214t-3.214 1.357h-118.857q-1.857 0-3.214-1.357t-1.357-3.214v-9.143q0-1.857 1.357-3.214t3.214-1.357h118.857q1.857 0 3.214 1.357t1.357 3.214z" fill="#4a9efa" />
</svg>
