<?xml version="1.0" encoding="utf-8"?>
<!-- Generated by IcoMoon.io -->
<!DOCTYPE svg PUBLIC "-//W3C//DTD SVG 1.1//EN" "http://www.w3.org/Graphics/SVG/1.1/DTD/svg11.dtd">
<svg version="1.1" xmlns="http://www.w3.org/2000/svg" xmlns:xlink="http://www.w3.org/1999/xlink" width="110" height="128" viewBox="0 0 110 128">
<g>
</g>
	<path d="M97.286 101.857v-46.286h-9.643q1.429 4.5 1.429 9.357 0 9-4.571 16.607t-12.429 12.036-17.143 4.429q-14.071 0-24.071-9.679t-10-23.393q0-4.857 1.429-9.357h-10.071v46.286q0 1.857 1.25 3.107t3.107 1.25h76.357q1.786 0 3.071-1.25t1.286-3.107zM77 63.786q0-8.857-6.464-15.107t-15.607-6.25q-9.071 0-15.536 6.25t-6.464 15.107 6.464 15.107 15.536 6.25q9.143 0 15.607-6.25t6.464-15.107zM97.286 38.071v-11.786q0-2-1.429-3.464t-3.5-1.464h-12.429q-2.071 0-3.5 1.464t-1.429 3.464v11.786q0 2.071 1.429 3.5t3.5 1.429h12.429q2.071 0 3.5-1.429t1.429-3.5zM109.714 23.214v81.571q0 5.786-4.143 9.929t-9.929 4.143h-81.571q-5.786 0-9.929-4.143t-4.143-9.929v-81.571q0-5.786 4.143-9.929t9.929-4.143h81.571q5.786 0 9.929 4.143t4.143 9.929z" fill="#4a9efa" />
</svg>
