<?xml version="1.0" encoding="utf-8"?>
<!-- Generated by IcoMoon.io -->
<!DOCTYPE svg PUBLIC "-//W3C//DTD SVG 1.1//EN" "http://www.w3.org/Graphics/SVG/1.1/DTD/svg11.dtd">
<svg version="1.1" xmlns="http://www.w3.org/2000/svg" xmlns:xlink="http://www.w3.org/1999/xlink" width="128" height="128" viewBox="0 0 128 128">
<g>
</g>
	<path d="M88.016 0c-22.092 0-40 17.912-40 40 0 5.14 1.076 10.004 2.852 14.516l-48.596 48.592c-1.404 1.408-2.272 2.744-2.272 4.892v12c0 4.28 3.716 8 8 8h12c2.144 0 3.5-0.86 4.904-2.256l5.74-5.744h9.372c4.416 0 8-3.584 8-8v-8h8c4.416 0 8-3.584 8-8v-9.376l9.476-9.484c4.516 1.78 9.376 2.86 14.524 2.86 22.084 0 40-17.912 40-40s-17.916-40-40-40zM88.016 72c-5.92 0-11.408-1.72-16.164-4.528l-1.376 1.372-12.12 12.124c-1.5 1.5-2.344 3.532-2.344 5.656v9.376h-8c-4.416 0-8 3.58-8 8v8h-9.368c-2.12 0-4.156 0.844-5.656 2.344l-5.672 5.672-11.304-0.016-0.012-11.4 46.66-46.576c0 0 0 0.004 0.004 0.008l5.876-5.876c-2.808-4.756-4.528-10.24-4.528-16.16 0-17.672 14.332-32 32-32s32 14.328 32 32-14.324 32.004-31.996 32.004zM111.28 32.956c-4.484-6.248-9.944-11.7-16.22-16.216-1.020-0.74-2.34-0.924-3.528-0.508-5.556 1.956-9.36 5.756-11.304 11.312-0.148 0.416-0.22 0.848-0.22 1.276 0 0.796 0.248 1.584 0.728 2.252 4.5 6.256 9.952 11.712 16.212 16.212 1.024 0.736 2.336 0.924 3.524 0.512 5.564-1.944 9.368-5.752 11.32-11.312 0.148-0.416 0.22-0.848 0.22-1.276-0.004-0.796-0.256-1.584-0.732-2.252zM99.28 44.040c-5.912-4.252-11.060-9.4-15.28-15.172 1.548-4.412 4.444-7.308 8.728-8.884 5.916 4.26 11.056 9.396 15.264 15.244-1.564 4.38-4.452 7.26-8.712 8.812z" fill="#4a9efa" />
</svg>
