<?xml version="1.0" encoding="utf-8"?>
<!-- Generated by IcoMoon.io -->
<!DOCTYPE svg PUBLIC "-//W3C//DTD SVG 1.1//EN" "http://www.w3.org/Graphics/SVG/1.1/DTD/svg11.dtd">
<svg version="1.1" xmlns="http://www.w3.org/2000/svg" xmlns:xlink="http://www.w3.org/1999/xlink" width="128" height="128" viewBox="0 0 128 128">
<g>
</g>
	<path d="M59.429 36.571q0-5.714-4-9.714t-9.714-4-9.714 4-4 9.714q0 3 1.357 5.929-2.929-1.357-5.929-1.357-5.714 0-9.714 4t-4 9.714 4 9.714 9.714 4 9.714-4 4-9.714q0-3-1.357-5.929 2.929 1.357 5.929 1.357t9.714-4 4-9.714zM120.214 86.857q0 1.214-3.5 4.714t-4.714 3.5q-0.643 0-2.036-1.143t-2.607-2.357-2.75-2.857-1.75-1.857l-6.857 6.857 15.714 15.714q2 2 2 4.857 0 3-2.786 5.786t-5.786 2.786q-2.857 0-4.857-2l-47.929-47.929q-12.571 9.357-26.071 9.357-11.643 0-18.964-7.321t-7.321-18.964q0-11.429 6.786-22.357t17.714-17.714 22.357-6.786q11.643 0 18.964 7.321t7.321 18.964q0 13.5-9.357 26.071l25.357 25.357 6.857-6.857q-0.214-0.214-1.857-1.75t-2.857-2.75-2.357-2.607-1.143-2.036q0-1.214 3.5-4.714t4.714-3.5q0.929 0 1.643 0.714 0.429 0.429 3.286 3.179t5.857 5.679 6.179 6.143 5.214 5.571 2.036 2.929z" fill="#4a9efa" />
</svg>
