<?xml version="1.0" encoding="utf-8"?>
<!-- Generated by IcoMoon.io -->
<!DOCTYPE svg PUBLIC "-//W3C//DTD SVG 1.1//EN" "http://www.w3.org/Graphics/SVG/1.1/DTD/svg11.dtd">
<svg version="1.1" xmlns="http://www.w3.org/2000/svg" xmlns:xlink="http://www.w3.org/1999/xlink" width="128" height="128" viewBox="0 0 128 128">
<g>
</g>
	<path d="M100 52v-16c0-19.884-16.116-36-36-36s-36 16.116-36 36v16c-6.628 0-12 5.372-12 12v28c0 19.884 16.116 36 36 36h24c19.884 0 36-16.116 36-36v-28c0-6.632-5.376-12-12-12zM36 36c0-15.464 12.536-28 28-28s28 12.536 28 28v16h-8v-15.992c0-11.048-8.952-20-20-20s-20 8.952-20 20v15.992h-8v-16zM80 36v16h-32v-16c0-8.836 7.164-16 16-16s16 7.164 16 16zM104 76v16c0 15.436-12.564 28-28 28h-24c-15.436 0-28-12.564-28-28v-28c0-2.208 1.792-4 4-4 2.668 0 5.332 0 8 0h56c2.664 0 5.328 0 8 0 2.204 0 4 1.792 4 4v12zM64 76c4.416 0 8 3.58 8 8 0 2.436-1.312 7.072-2.664 10.728-1.092 2.952-2.208 5.264-5.336 5.264-2.876 0-4.244-2.336-5.332-5.304-1.336-3.648-2.668-8.26-2.668-10.688 0-4.42 3.584-8 8-8z" fill="#4a9efa" />
</svg>
