<?xml version="1.0" encoding="utf-8"?>
<!-- Generated by IcoMoon.io -->
<!DOCTYPE svg PUBLIC "-//W3C//DTD SVG 1.1//EN" "http://www.w3.org/Graphics/SVG/1.1/DTD/svg11.dtd">
<svg version="1.1" xmlns="http://www.w3.org/2000/svg" xmlns:xlink="http://www.w3.org/1999/xlink" width="101" height="128" viewBox="0 0 101 128">
<g>
</g>
	<path d="M100.571 52.571v13.714q0 2.857-2 4.857t-4.857 2h-29.714v29.714q0 2.857-2 4.857t-4.857 2h-13.714q-2.857 0-4.857-2t-2-4.857v-29.714h-29.714q-2.857 0-4.857-2t-2-4.857v-13.714q0-2.857 2-4.857t4.857-2h29.714v-29.714q0-2.857 2-4.857t4.857-2h13.714q2.857 0 4.857 2t2 4.857v29.714h29.714q2.857 0 4.857 2t2 4.857z" fill="#4a9efa" />
</svg>
