<?xml version="1.0" encoding="utf-8"?>
<!-- Generated by IcoMoon.io -->
<!DOCTYPE svg PUBLIC "-//W3C//DTD SVG 1.1//EN" "http://www.w3.org/Graphics/SVG/1.1/DTD/svg11.dtd">
<svg version="1.1" xmlns="http://www.w3.org/2000/svg" xmlns:xlink="http://www.w3.org/1999/xlink" width="110" height="128" viewBox="0 0 110 128">
<g>
</g>
	<path d="M109.714 96v9.143q0 1.857-1.357 3.214t-3.214 1.357h-100.571q-1.857 0-3.214-1.357t-1.357-3.214v-9.143q0-1.857 1.357-3.214t3.214-1.357h100.571q1.857 0 3.214 1.357t1.357 3.214zM109.714 59.429v9.143q0 1.857-1.357 3.214t-3.214 1.357h-100.571q-1.857 0-3.214-1.357t-1.357-3.214v-9.143q0-1.857 1.357-3.214t3.214-1.357h100.571q1.857 0 3.214 1.357t1.357 3.214zM109.714 22.857v9.143q0 1.857-1.357 3.214t-3.214 1.357h-100.571q-1.857 0-3.214-1.357t-1.357-3.214v-9.143q0-1.857 1.357-3.214t3.214-1.357h100.571q1.857 0 3.214 1.357t1.357 3.214z" fill="#4a9efa" />
</svg>
