<?xml version="1.0" encoding="utf-8"?>
<!-- Generated by IcoMoon.io -->
<!DOCTYPE svg PUBLIC "-//W3C//DTD SVG 1.1//EN" "http://www.w3.org/Graphics/SVG/1.1/DTD/svg11.dtd">
<svg version="1.1" xmlns="http://www.w3.org/2000/svg" xmlns:xlink="http://www.w3.org/1999/xlink" width="101" height="128" viewBox="0 0 101 128">
<g>
</g>
	<path d="M36.571 52.571v41.143q0 1-0.643 1.643t-1.643 0.643h-4.571q-1 0-1.643-0.643t-0.643-1.643v-41.143q0-1 0.643-1.643t1.643-0.643h4.571q1 0 1.643 0.643t0.643 1.643zM54.857 52.571v41.143q0 1-0.643 1.643t-1.643 0.643h-4.571q-1 0-1.643-0.643t-0.643-1.643v-41.143q0-1 0.643-1.643t1.643-0.643h4.571q1 0 1.643 0.643t0.643 1.643zM73.143 52.571v41.143q0 1-0.643 1.643t-1.643 0.643h-4.571q-1 0-1.643-0.643t-0.643-1.643v-41.143q0-1 0.643-1.643t1.643-0.643h4.571q1 0 1.643 0.643t0.643 1.643zM82.286 104.286v-67.714h-64v67.714q0 1.571 0.5 2.893t1.036 1.929 0.75 0.607h59.429q0.214 0 0.75-0.607t1.036-1.929 0.5-2.893zM34.286 27.429h32l-3.429-8.357q-0.5-0.643-1.214-0.786h-22.643q-0.714 0.143-1.214 0.786zM100.571 29.714v4.571q0 1-0.643 1.643t-1.643 0.643h-6.857v67.714q0 5.929-3.357 10.25t-8.071 4.321h-59.429q-4.714 0-8.071-4.179t-3.357-10.107v-68h-6.857q-1 0-1.643-0.643t-0.643-1.643v-4.571q0-1 0.643-1.643t1.643-0.643h22.071l5-11.929q1.071-2.643 3.857-4.5t5.643-1.857h22.857q2.857 0 5.643 1.857t3.857 4.5l5 11.929h22.071q1 0 1.643 0.643t0.643 1.643z" fill="#4a9efa" />
</svg>
